<?xml version="1.0" standalone="no"?>
<!DOCTYPE svg PUBLIC "-//W3C//DTD SVG 20010904//EN"
 "http://www.w3.org/TR/2001/REC-SVG-20010904/DTD/svg10.dtd">
<svg version="1.0" xmlns="http://www.w3.org/2000/svg"
 width="1280.000000pt" height="856.000000pt" viewBox="0 0 1280.000000 856.000000"
 preserveAspectRatio="xMidYMid meet">

<g transform="translate(0.000000,856.000000) scale(0.100000,-0.100000)"
fill="#000000" stroke="none">
<path d="M95 8540 c-3 -5 -1 -10 4 -10 6 0 11 5 11 10 0 6 -2 10 -4 10 -3 0
-8 -4 -11 -10z"/>
<path d="M68 8519 c-2 -6 -18 -12 -36 -12 l-33 -2 3 -50 c3 -44 6 -50 23 -47
11 2 22 8 24 14 2 6 6 6 11 -2 5 -9 16 -8 44 4 21 9 40 15 44 14 11 -2 46 15
60 29 8 7 17 11 21 9 4 -3 7 4 8 15 1 13 -5 19 -20 19 -64 2 -127 9 -136 14
-5 3 -11 1 -13 -5z m102 -49 c0 -5 -2 -10 -4 -10 -3 0 -8 5 -11 10 -3 6 -1 10
4 10 6 0 11 -4 11 -10z"/>
<path d="M2425 7779 c-27 -11 -72 -27 -100 -36 -27 -8 -61 -21 -75 -28 -14 -7
-59 -28 -100 -47 -183 -85 -233 -112 -302 -164 -40 -30 -74 -59 -76 -64 -2 -6
-8 -10 -13 -10 -19 0 -70 -51 -371 -371 -10 -11 -18 -21 -18 -25 0 -3 -14 -19
-30 -37 -17 -18 -33 -43 -37 -57 -3 -14 -15 -38 -26 -54 -11 -16 -46 -79 -77
-140 -31 -61 -70 -134 -87 -162 -17 -28 -34 -62 -38 -75 -4 -13 -30 -69 -57
-124 -27 -55 -63 -134 -80 -175 -16 -41 -40 -97 -53 -125 -26 -56 -42 -124
-49 -206 -3 -30 -10 -77 -16 -103 -6 -27 -12 -61 -14 -75 -2 -14 -16 -84 -31
-156 -20 -101 -26 -159 -26 -258 0 -71 -5 -152 -11 -180 -17 -74 -17 -155 -1
-202 8 -23 15 -94 17 -165 6 -201 20 -309 54 -400 3 -8 7 -30 9 -48 3 -18 13
-58 24 -89 28 -82 26 -92 -16 -86 -21 3 -42 -1 -51 -8 -13 -10 -17 -10 -24 0
-6 11 -9 11 -16 -1 -5 -8 -16 -17 -25 -20 -10 -4 -16 -16 -15 -30 1 -13 -2
-29 -7 -35 -7 -10 -2 -13 19 -13 17 0 24 -3 17 -8 -18 -11 -9 -48 11 -44 9 2
16 -2 16 -8 0 -5 5 -10 11 -10 6 0 9 7 6 14 -4 10 -1 13 9 9 17 -6 18 -15 2
-31 -9 -9 -8 -12 6 -12 26 0 16 -34 -12 -38 -17 -3 -21 -8 -17 -23 4 -13 2
-19 -9 -19 -8 0 -18 -10 -22 -22 -4 -13 -11 -26 -17 -30 -7 -4 0 -12 16 -19
15 -7 27 -17 27 -23 0 -6 5 -4 10 4 8 13 10 13 10 -2 0 -9 6 -19 13 -21 9 -4
8 -8 -3 -16 -8 -6 -10 -11 -4 -11 14 0 27 -42 15 -50 -4 -3 -11 -17 -15 -32
-9 -41 -46 -98 -62 -98 -8 0 -14 -6 -14 -14 0 -8 -6 -17 -12 -19 -8 -3 -6 -6
5 -6 9 -1 17 -7 18 -13 7 -78 7 -79 -5 -62 -11 14 -13 14 -27 -2 -8 -11 -9
-15 -1 -10 19 12 14 -8 -7 -26 -14 -12 -21 -13 -25 -5 -2 7 -5 3 -5 -8 0 -23
23 -58 32 -48 4 3 7 1 7 -5 0 -6 -5 -14 -10 -17 -11 -7 12 -35 29 -35 6 0 11
-7 11 -15 0 -14 45 -40 63 -37 4 1 7 -5 7 -13 0 -9 6 -12 15 -9 12 5 13 2 6
-17 -5 -13 -14 -23 -20 -22 -6 2 -11 -3 -11 -11 0 -15 -54 -39 -65 -28 -3 4
-9 2 -13 -3 -4 -6 -17 -15 -29 -22 -17 -10 -23 -10 -26 0 -3 7 -6 4 -6 -6 -1
-10 -6 -15 -12 -12 -6 4 -17 -1 -25 -11 -13 -18 -14 -18 -8 -1 6 17 5 17 -30
1 -20 -10 -36 -25 -37 -33 0 -13 -2 -12 -7 2 -6 15 -13 12 -44 -23 -23 -24
-32 -40 -23 -40 8 0 13 -6 11 -12 -1 -7 -1 -10 1 -5 3 4 10 4 16 0 7 -4 8 0 3
13 -4 10 -4 15 0 11 4 -4 13 1 21 11 8 9 12 12 9 6 -8 -16 15 -33 41 -31 12 0
21 4 21 7 0 3 0 10 1 17 1 17 74 12 82 -6 4 -11 7 -11 20 0 18 17 59 23 59 8
0 -6 7 -8 16 -5 9 4 23 1 30 -5 10 -8 14 -8 14 0 0 6 7 11 15 11 9 0 12 -6 8
-16 -4 -10 -1 -15 8 -13 8 2 33 -7 57 -20 34 -17 41 -25 33 -35 -6 -8 -9 -21
-5 -30 4 -11 1 -16 -11 -16 -10 0 -15 -5 -12 -14 3 -7 0 -13 -6 -12 -7 0 -14
-3 -16 -9 -2 -5 -17 -16 -33 -24 -15 -7 -28 -20 -28 -28 0 -11 -7 -14 -25 -11
-22 5 -24 2 -19 -18 5 -18 2 -24 -10 -24 -9 0 -16 -6 -16 -12 0 -10 -3 -9 -9
1 -6 10 -10 10 -13 1 -5 -16 -59 -22 -75 -8 -10 8 -13 6 -13 -6 0 -11 -7 -16
-17 -14 -10 1 -24 -2 -32 -6 -11 -7 -13 -5 -7 9 6 18 6 18 -15 -1 -11 -10 -24
-17 -28 -15 -3 2 -11 -6 -17 -18 -6 -11 -13 -18 -17 -15 -3 3 -3 -4 0 -16 3
-13 1 -25 -7 -30 -15 -9 38 -38 63 -34 15 2 21 -8 18 -28 0 -5 8 -8 18 -8 11
0 26 -9 34 -20 8 -11 17 -17 21 -13 4 4 12 1 17 -7 6 -9 12 -11 15 -5 2 6 25
8 50 6 32 -2 44 0 40 8 -11 17 10 13 24 -4 10 -12 10 -15 -4 -15 -9 0 -16 -5
-16 -10 0 -14 40 7 57 29 11 15 12 14 13 -1 0 -9 -6 -19 -12 -21 -10 -4 -10
-7 0 -15 10 -7 9 -12 -4 -23 -12 -9 -15 -10 -10 -1 4 7 2 12 -8 12 -8 0 -18
-5 -21 -10 -4 -6 -11 -8 -16 -5 -5 4 -9 -1 -9 -9 0 -9 -5 -16 -11 -16 -5 0 -9
-8 -8 -18 5 -41 -36 -92 -62 -76 -5 3 -9 -2 -9 -10 0 -9 -4 -16 -10 -16 -5 0
-10 6 -10 13 0 9 -3 8 -9 -2 -7 -11 -11 -10 -21 5 -9 15 -10 15 -6 2 7 -22
-16 -29 -32 -9 -11 14 -12 13 -7 -6 5 -18 2 -23 -12 -24 -10 0 -13 -3 -7 -5 7
-3 10 -14 7 -24 -3 -11 -9 -17 -14 -14 -5 3 -9 0 -9 -5 0 -6 -7 -11 -15 -11
-17 0 -20 -16 -5 -25 6 -3 10 -1 10 5 0 6 4 9 9 6 5 -4 12 0 15 6 3 7 3 2 -1
-12 -3 -14 -13 -30 -21 -36 -14 -10 -13 -13 6 -23 11 -6 28 -11 36 -11 9 0 16
-8 16 -19 0 -12 9 -20 25 -23 14 -3 25 -2 25 2 0 8 46 6 77 -4 12 -4 31 -2 43
4 11 6 20 7 20 3 0 -4 21 -9 46 -10 25 -1 53 -8 62 -15 13 -11 14 -11 7 1 -6
11 -4 13 9 8 10 -4 22 -7 27 -7 6 0 7 -5 3 -12 -5 -8 -2 -9 9 -5 10 3 17 2 17
-3 0 -6 5 -10 11 -10 5 0 7 4 4 10 -3 6 1 7 10 4 13 -6 12 -9 -7 -22 -13 -9
-28 -23 -35 -32 -6 -8 -24 -16 -40 -16 -56 -3 -59 -4 -46 -12 6 -4 -10 -8 -35
-9 -58 -2 -152 -24 -152 -35 0 -4 -7 -8 -15 -8 -8 0 -15 -6 -15 -14 0 -20 -30
-28 -49 -14 -10 8 -9 5 3 -10 11 -12 14 -22 8 -22 -6 0 -14 5 -18 11 -6 11
-53 9 -111 -5 -16 -3 -23 0 -23 10 0 8 -6 14 -12 13 -34 -4 -42 1 -22 16 11 9
14 15 7 16 -7 1 -18 2 -25 3 -6 0 -13 7 -16 15 -3 8 0 11 6 7 5 -3 13 2 16 11
4 9 1 20 -6 24 -7 5 -15 4 -16 -1 -2 -6 -9 -7 -14 -3 -7 4 -9 -2 -6 -15 4 -12
2 -22 -3 -22 -8 0 -13 15 -10 33 1 7 -19 11 -47 10 -8 -1 -11 5 -8 13 5 12 2
12 -17 3 -18 -9 -20 -9 -9 2 6 7 12 16 12 20 0 8 -93 -1 -100 -10 -3 -3 -21
-7 -40 -9 -19 -1 -37 -7 -38 -12 -2 -6 -8 -8 -13 -4 -5 3 -9 -2 -9 -10 0 -11
-8 -14 -35 -11 l-35 5 0 -70 c0 -68 5 -80 26 -61 12 13 66 17 82 7 7 -4 32
-10 54 -13 23 -2 51 -11 62 -19 11 -8 31 -14 43 -14 13 0 23 -4 23 -10 0 -5 7
-7 15 -4 8 4 12 10 9 16 -4 6 11 9 38 7 24 -2 49 0 55 4 6 4 14 1 16 -5 4 -10
6 -10 6 -1 1 7 8 10 16 7 8 -4 15 -2 15 4 0 6 -6 13 -12 15 -8 3 -7 6 4 6 9 1
20 -4 24 -10 4 -8 9 -7 15 2 7 11 12 12 28 2 15 -10 20 -10 24 0 3 9 8 9 20
-1 9 -8 21 -11 27 -7 5 3 16 3 22 -1 13 -8 17 -9 72 -18 16 -3 33 -11 38 -19
6 -11 22 -14 62 -11 32 2 58 0 61 -7 5 -6 12 -4 21 8 7 10 14 14 14 8 0 -12
60 -14 77 -2 6 4 14 3 18 -2 3 -6 12 -8 20 -4 8 3 15 0 15 -7 0 -6 4 -9 9 -6
5 4 11 1 13 -6 3 -9 9 -8 22 5 10 9 22 17 28 17 6 0 1 -9 -11 -19 -13 -11 -20
-24 -18 -28 3 -5 2 -15 -3 -23 -7 -11 -11 -12 -24 0 -14 11 -16 11 -11 -1 2
-8 0 -21 -5 -29 -9 -13 -11 -13 -20 0 -5 8 -8 21 -5 28 3 7 0 10 -6 7 -5 -4
-7 -16 -3 -27 4 -14 2 -18 -5 -14 -6 4 -11 2 -11 -3 0 -18 -47 -12 -55 6 -6
16 -8 16 -18 3 -7 -8 -24 -16 -40 -17 -24 -2 -26 0 -12 13 20 20 19 23 -4 17
-11 -3 -22 -11 -25 -19 -3 -8 -17 -14 -32 -14 -19 0 -25 -4 -21 -14 4 -10 1
-13 -9 -9 -7 3 -14 0 -14 -7 0 -9 -4 -9 -17 1 -11 10 -14 10 -9 2 4 -7 2 -14
-3 -14 -6 -1 -14 -2 -18 -3 -73 -20 -213 -16 -213 5 0 16 -29 41 -40 34 -5 -3
-10 -14 -11 -23 0 -11 -3 -12 -6 -4 -2 6 -9 12 -14 12 -4 0 -6 -7 -3 -15 5
-13 2 -14 -21 -5 -15 6 -36 8 -46 5 -15 -5 -18 -2 -13 12 5 17 5 17 -9 1 -8
-10 -21 -18 -30 -18 -9 0 -22 -6 -29 -13 -7 -7 -22 -12 -33 -12 -11 0 -31 -7
-45 -16 -28 -17 -123 -17 -145 1 -20 17 -25 0 -25 -96 0 -90 0 -92 25 -96 14
-3 25 -1 25 4 0 4 11 6 24 2 13 -3 27 -1 30 4 4 7 17 7 34 2 27 -7 52 -6 97 4
11 2 26 5 33 5 7 1 10 6 7 11 -3 6 -4 10 0 10 3 0 10 -10 14 -22 9 -22 9 -22
18 -3 8 20 23 24 98 25 22 1 46 7 54 13 12 10 13 8 7 -13 -4 -14 -4 -20 1 -14
13 19 65 19 100 1 18 -9 43 -17 58 -17 14 0 25 -4 25 -9 0 -9 29 -20 70 -26
14 -2 26 -9 28 -15 2 -5 11 -10 20 -10 14 0 14 -2 3 -9 -7 -5 -21 -6 -31 -4
-12 3 -20 -2 -25 -18 -9 -27 -29 -49 -44 -49 -13 0 -10 -22 4 -32 6 -4 0 -8
-12 -8 l-22 0 24 -25 c14 -13 25 -29 25 -35 0 -7 6 -8 16 -2 10 6 39 4 77 -5
33 -8 69 -12 79 -10 10 3 20 1 23 -4 3 -4 21 -8 39 -7 18 1 38 -2 44 -6 7 -4
17 -4 23 0 17 10 99 14 99 4 0 -5 20 -12 45 -16 28 -4 45 -11 45 -20 0 -8 -6
-11 -17 -7 -11 5 -14 3 -8 -6 6 -10 3 -11 -13 -2 -16 8 -21 7 -26 -5 -3 -8 -2
-12 4 -9 6 3 7 -1 4 -9 -5 -14 -8 -14 -21 -1 -18 19 -27 19 -20 1 8 -19 -20
-29 -44 -16 -11 6 -19 7 -19 1 0 -10 -39 -3 -57 11 -7 5 -13 4 -15 -3 -2 -7
-21 -13 -41 -13 -20 -1 -37 -4 -37 -7 0 -3 -17 -5 -37 -4 -20 2 -50 -2 -67 -7
-17 -5 -35 -10 -41 -12 -5 -1 -44 -13 -85 -26 -41 -13 -94 -24 -117 -25 -24
-1 -45 -4 -49 -7 -3 -4 -18 -3 -32 1 -15 3 -51 6 -79 6 -29 0 -53 3 -53 7 0 4
-11 3 -24 -2 -14 -5 -53 -9 -88 -10 -93 -2 -109 -1 -121 7 -17 10 -47 11 -47
1 0 -4 -7 -8 -15 -8 -12 0 -15 -17 -15 -96 0 -88 2 -95 18 -88 9 4 62 11 117
15 95 7 232 30 252 42 9 6 86 18 113 19 8 0 53 -1 100 -1 47 -1 92 -1 100 0 8
1 34 -3 57 -9 24 -5 43 -7 43 -3 0 8 59 6 67 -3 3 -3 15 0 27 6 11 6 38 11 59
11 20 0 37 3 37 8 0 5 7 6 15 3 8 -4 21 -2 28 4 21 17 77 25 77 12 0 -10 4 -9
15 0 8 7 15 8 15 3 0 -9 91 -24 142 -24 10 0 21 -5 24 -11 4 -7 9 -6 14 3 7
10 12 10 22 1 11 -8 17 -9 26 0 8 8 9 5 6 -13 -4 -17 -3 -20 4 -10 8 11 12 10
21 -5 9 -17 10 -16 11 8 0 20 4 26 14 22 11 -4 13 -12 6 -29 -5 -14 -5 -26 1
-32 7 -7 1 -10 -18 -9 -15 0 -31 5 -35 11 -5 6 -8 3 -8 -7 0 -23 -20 -34 -31
-17 -5 9 -9 10 -9 2 0 -6 -13 -14 -30 -18 -16 -4 -30 -10 -30 -14 0 -4 -14 -8
-32 -9 -17 -2 -38 -8 -46 -15 -8 -6 -28 -10 -44 -8 -21 2 -28 -1 -23 -9 5 -8
-3 -10 -29 -6 -20 3 -36 2 -36 -3 0 -6 -8 -8 -18 -7 -9 2 -28 -1 -42 -6 -34
-14 -131 -18 -124 -6 4 6 -3 5 -15 -2 -12 -6 -27 -9 -34 -7 -7 2 -24 0 -39 -4
-15 -4 -30 -4 -33 1 -3 5 -11 7 -18 5 -17 -6 -133 -16 -184 -17 -24 0 -43 -3
-43 -7 0 -3 -28 -5 -62 -4 -33 2 -66 -1 -72 -5 -6 -5 -24 -7 -41 -6 -73 7
-292 6 -312 0 l-23 -7 0 -285 0 -284 330 0 c213 0 330 4 330 10 0 6 -8 10 -19
10 -20 0 -48 27 -38 36 3 4 31 12 61 19 41 10 56 10 60 1 3 -8 5 -8 5 0 1 8
14 9 40 4 21 -4 52 -6 67 -4 70 8 91 11 101 17 6 4 14 0 17 -9 3 -8 10 -12 16
-9 5 3 10 1 10 -4 0 -11 -12 -15 -42 -12 -9 1 -29 -5 -43 -15 -23 -15 -25 -15
-25 0 0 9 -5 16 -11 16 -6 0 -8 -7 -5 -16 3 -9 6 -22 6 -30 0 -12 208 -14
1475 -14 977 0 1475 3 1475 10 0 6 -5 10 -12 10 -26 0 4 13 32 14 35 1 41 -20
8 -27 l-23 -4 23 -2 c30 -1 37 21 19 59 l-16 30 75 -4 c41 -3 79 -8 86 -12 7
-5 9 -2 5 9 -4 10 -2 14 6 12 7 -3 39 -7 72 -9 33 -3 69 -6 80 -8 15 -2 21 3
23 25 2 15 8 25 13 22 7 -5 13 13 11 36 -1 3 9 5 21 5 27 -1 37 41 13 50 -9 3
-14 10 -11 14 3 5 1 11 -5 15 -5 3 -10 11 -10 16 0 6 5 7 10 4 6 -3 10 -1 10
4 0 13 -10 14 -30 1 -9 -6 -17 -5 -22 3 -6 10 -39 12 -200 8 -39 -1 -52 -16
-20 -23 9 -3 -2 -6 -25 -9 -43 -5 -59 5 -25 15 9 3 0 3 -21 0 -26 -4 -37 -2
-32 5 3 7 0 8 -9 5 -9 -3 -14 -10 -11 -14 3 -4 -2 -10 -10 -14 -16 -6 -29 9
-20 24 4 6 -5 10 -19 10 -16 0 -26 -6 -26 -14 0 -21 -35 -12 -37 10 -3 18 -2
17 6 -1 8 -18 10 -18 16 -3 3 9 16 18 27 21 14 4 19 11 14 22 -4 10 2 19 18
25 27 10 41 36 23 44 -7 2 -5 5 4 5 9 1 22 8 29 16 10 12 10 15 -4 15 -9 0
-16 7 -16 16 0 9 -9 18 -21 21 -11 3 -17 9 -12 12 15 11 33 51 23 51 -35 0 20
31 78 44 8 1 17 7 20 12 10 13 66 18 58 5 -7 -10 14 -6 39 7 9 6 41 12 85 16
14 2 27 4 30 5 3 1 23 5 45 7 22 3 51 12 64 21 15 10 21 11 16 2 -6 -9 -3 -11
8 -6 10 3 17 2 17 -3 0 -6 4 -10 10 -10 5 0 7 7 4 15 -4 8 -1 15 5 15 9 0 9 5
1 20 -11 21 -30 27 -30 9 0 -5 5 -7 10 -4 6 3 10 -1 10 -9 0 -10 -6 -13 -16
-9 -11 4 -13 13 -8 36 4 20 3 27 -5 23 -15 -9 -14 -5 5 33 16 33 12 67 -6 56
-7 -4 -9 3 -5 22 5 19 4 24 -3 15 -7 -11 -10 -9 -15 7 -5 19 -8 20 -31 10 -28
-13 -49 -4 -26 11 9 6 10 10 3 10 -6 0 -19 -7 -27 -16 -10 -10 -16 -11 -16 -4
0 8 -7 9 -17 5 -10 -4 -24 -8 -31 -8 -7 0 -11 -6 -8 -14 5 -11 1 -11 -16 -2
-18 10 -20 9 -15 -5 6 -14 -3 -21 -25 -17 -4 0 -12 -8 -18 -19 -7 -14 -7 -20
0 -20 5 0 10 -4 10 -9 0 -5 -8 -8 -17 -7 -10 0 -17 -5 -15 -11 1 -7 -2 -14 -8
-14 -5 -1 -14 -2 -19 -3 -14 -2 -26 -16 -13 -16 6 0 9 -7 6 -15 -9 -23 -37
-19 -31 5 5 20 -12 24 -25 5 -5 -6 -8 -5 -8 3 0 7 -5 10 -10 7 -6 -3 -13 1
-16 9 -9 24 -26 8 -18 -17 6 -21 5 -21 -11 1 -16 22 -16 24 2 44 18 21 18 21
-4 9 -17 -8 -29 -9 -43 -1 -24 13 -27 22 -5 13 9 -3 23 3 31 13 9 11 13 13 9
7 -7 -15 4 -17 24 -4 13 8 19 77 7 88 -3 3 -10 -5 -16 -18 -10 -22 -10 -22 -5
6 5 23 4 27 -6 18 -14 -14 -39 -6 -39 13 0 13 -12 18 -32 15 -5 0 -8 6 -8 14
0 8 -4 15 -10 15 -5 0 -10 -5 -10 -12 0 -6 -2 -9 -5 -6 -3 3 -1 16 4 29 5 13
10 18 10 12 1 -7 9 -13 19 -13 14 0 15 2 2 10 -20 12 -8 22 32 25 18 2 35 5
38 6 3 1 9 1 14 0 4 -1 14 3 22 10 7 6 18 8 24 4 6 -4 17 -1 25 5 8 6 23 9 35
5 11 -3 20 -2 20 4 0 6 20 9 46 7 39 -2 48 1 61 21 11 16 22 22 34 18 11 -4
19 -2 19 4 0 6 5 11 11 11 5 0 7 -6 3 -12 -5 -10 -4 -10 6 -1 15 14 5 47 -11
37 -8 -4 -9 -3 -5 4 5 9 13 9 27 1 12 -6 23 -8 27 -5 3 3 0 6 -7 6 -8 0 -11 7
-7 15 5 13 -4 19 -25 17 -4 -1 -9 12 -13 28 -3 17 -12 30 -20 30 -13 0 -13 4
0 29 11 22 20 28 37 24 16 -3 18 -2 9 5 -10 7 -5 11 20 16 52 12 138 13 138 3
0 -6 5 -6 13 0 6 5 26 8 42 6 17 -1 53 2 80 7 28 5 69 11 93 12 28 1 42 7 42
16 0 7 4 10 10 7 13 -8 81 5 75 15 -2 4 7 5 22 2 19 -4 24 -2 18 8 -6 9 -3 10
14 1 17 -9 22 -9 25 1 12 39 14 41 15 18 l1 -25 21 25 c11 14 18 19 14 13 -3
-7 -2 -13 3 -13 6 0 13 8 16 17 6 15 8 15 16 3 8 -13 10 -12 10 2 0 9 -5 20
-11 24 -8 4 -6 10 6 17 14 8 15 11 4 18 -8 5 -23 8 -34 8 l-20 0 20 -10 c17
-8 16 -9 -5 -4 -45 11 -90 10 -94 0 -3 -5 -5 -4 -5 3 -1 14 -31 17 -31 2 0 -6
-15 -8 -40 -4 -26 4 -45 2 -55 -6 -12 -10 -15 -10 -15 4 0 9 -7 16 -15 16 -10
0 -12 -6 -8 -17 4 -10 -9 -1 -29 20 -20 21 -35 46 -33 55 13 64 17 72 35 62
25 -14 28 -13 26 7 -1 18 24 25 35 11 3 -5 16 1 29 12 15 13 31 18 46 14 13
-3 24 -2 24 3 0 15 40 8 51 -8 8 -10 9 -8 4 8 -5 18 -3 22 9 17 9 -3 16 -1 16
5 0 14 37 15 45 1 8 -14 26 -13 22 1 -1 6 8 12 21 14 12 1 22 -2 22 -7 0 -4
-8 -8 -17 -9 -13 0 -14 -2 -4 -6 8 -3 22 5 32 18 l19 24 0 -22 c0 -14 6 -23
15 -23 8 0 15 7 15 15 0 9 6 12 18 9 16 -5 16 -5 0 9 -24 19 -23 30 1 17 29
-15 51 -12 51 8 0 9 14 27 31 38 l31 22 -31 7 c-17 4 -31 12 -31 20 0 17 -53
27 -62 12 -6 -9 -8 -9 -8 1 0 6 -6 12 -13 12 -16 0 -41 56 -33 75 3 8 15 15
26 15 12 0 18 -4 15 -10 -3 -5 3 -10 14 -10 16 0 21 6 21 26 0 23 2 24 15 10
8 -8 15 -19 15 -25 0 -6 4 -11 10 -11 5 0 19 -10 31 -22 l21 -23 -16 32 c-20
40 -20 49 0 32 13 -10 17 -10 24 1 7 12 11 11 26 -1 11 -9 15 -9 10 -1 -5 8 0
12 13 12 13 0 21 -7 22 -17 0 -15 2 -15 9 2 5 12 9 14 9 6 1 -11 5 -10 15 4 8
11 12 23 10 26 -2 4 5 9 15 12 19 5 22 21 8 44 -4 6 -1 14 5 16 10 4 9 8 -2
16 -12 9 -13 14 -2 31 7 11 8 20 2 20 -18 0 -31 39 -20 60 14 25 9 25 -20 0
-15 -13 -27 -17 -33 -11 -12 12 1 33 15 25 7 -4 8 -2 4 4 -4 7 -19 9 -36 5
-23 -4 -30 -2 -30 11 0 9 -4 16 -10 16 -5 0 -10 -5 -10 -11 0 -5 -10 1 -22 14
-13 13 -29 22 -35 20 -7 -3 -13 0 -13 6 0 6 6 11 13 11 8 0 12 11 11 29 -2 29
8 54 20 51 4 0 14 6 22 15 9 8 11 15 5 15 -6 0 -11 5 -11 11 0 6 7 8 18 4 13
-5 14 -3 5 6 -9 9 -8 15 3 26 7 8 18 12 23 9 5 -3 7 4 4 15 -4 15 1 27 17 39
13 10 24 24 26 31 1 8 5 28 9 44 4 21 4 26 -3 16 -8 -11 -11 -9 -17 8 -6 19
-17 25 -37 22 -5 0 -8 6 -8 15 0 8 -4 13 -9 10 -5 -4 -12 0 -14 6 -4 10 -8 9
-17 -2 -10 -13 -11 -12 -6 4 4 13 2 17 -7 13 -11 -4 -12 6 -6 51 4 31 7 60 6
66 -1 6 4 10 11 9 6 -2 12 4 12 12 0 8 9 23 20 32 11 10 20 22 20 28 0 6 12
22 28 36 15 14 44 44 64 66 20 23 39 39 42 35 3 -3 6 0 6 7 0 7 5 9 10 6 6 -4
13 8 17 25 3 18 12 34 19 37 8 3 14 10 14 17 0 7 18 31 40 55 22 23 40 47 40
51 0 5 11 20 25 34 14 14 25 30 25 37 0 14 66 98 93 117 18 14 50 60 93 139
27 48 28 48 101 136 27 32 60 79 73 104 14 26 42 74 62 108 21 33 55 112 76
175 21 63 44 125 50 137 12 21 24 82 24 116 -1 9 4 17 9 17 6 0 8 3 6 8 -3 4
-1 29 3 56 8 51 -5 96 -28 96 -7 0 -11 4 -7 9 8 14 -30 32 -52 24 -28 -10
-133 -85 -133 -94 0 -5 -4 -9 -9 -9 -4 0 -48 -38 -96 -85 -48 -47 -98 -88
-112 -91 -17 -5 -21 -9 -13 -14 9 -6 5 -15 -15 -31 -15 -13 -52 -48 -82 -76
-30 -29 -59 -53 -64 -53 -5 0 -12 -7 -15 -15 -4 -8 -12 -15 -19 -15 -7 0 -16
-7 -19 -16 -3 -8 -10 -13 -15 -10 -5 3 -11 -1 -15 -9 -3 -8 -12 -15 -19 -15
-18 0 -78 -30 -96 -48 -8 -7 -23 -11 -33 -9 -11 3 -22 -1 -25 -9 -4 -11 -9
-12 -19 -3 -11 9 -14 8 -14 -2 0 -11 -2 -11 -10 1 -9 13 -11 13 -20 0 -8 -12
-10 -11 -10 7 0 12 8 23 18 26 13 4 11 5 -5 6 -17 1 -23 7 -23 24 1 20 2 20
11 4 6 -9 15 -15 21 -11 7 4 7 9 -1 13 -7 5 -5 15 6 31 10 14 18 32 18 40 0
10 9 14 27 13 19 -1 28 4 31 19 3 11 10 17 16 14 5 -4 13 -1 16 5 4 5 14 8 22
5 9 -4 13 -1 10 6 -2 7 -10 12 -16 10 -7 -1 -10 1 -8 5 3 5 -1 16 -8 26 -12
17 -13 15 -11 -17 4 -42 -1 -46 -14 -11 -5 14 -15 25 -21 25 -6 0 -9 -7 -5
-15 3 -8 0 -14 -7 -12 -7 1 -11 -4 -9 -11 1 -8 -2 -11 -9 -7 -8 5 -8 10 0 18
19 19 12 25 -34 31 -42 7 -64 26 -30 26 8 0 15 4 15 10 0 5 7 7 15 4 8 -4 15
-1 15 6 0 6 5 8 11 5 6 -4 13 2 16 14 3 12 11 21 18 21 7 0 18 7 25 15 7 8 16
12 21 9 5 -3 9 1 9 9 0 8 7 20 15 27 12 10 15 10 15 0 0 -8 8 -4 19 8 10 12
22 22 27 22 5 0 16 8 23 18 9 12 21 17 37 14 20 -4 26 1 35 26 6 18 19 32 30
34 11 2 20 6 19 11 0 4 9 16 20 27 11 11 20 27 20 35 0 7 6 18 13 22 7 4 26
25 41 46 16 20 35 37 42 37 8 0 14 4 14 9 0 6 21 32 48 58 55 56 102 113 102
125 0 17 37 5 198 -63 295 -126 478 -220 947 -489 253 -145 526 -301 607 -346
80 -45 163 -94 185 -107 103 -65 258 -138 288 -135 16 2 30 8 29 13 0 6 17 22
38 37 21 16 35 33 32 41 -5 15 128 127 151 127 15 0 82 75 134 150 64 93 104
242 68 256 -36 14 -146 -88 -225 -206 -55 -84 -160 -203 -195 -222 -15 -7 -28
1 -70 44 -29 30 -68 62 -87 71 -33 16 -101 66 -146 107 -12 11 -25 20 -29 20
-9 0 -77 51 -92 69 -7 8 -28 24 -47 35 -19 12 -55 36 -81 54 -26 19 -52 35
-58 36 -22 5 -52 19 -67 31 -8 7 -58 35 -110 61 -52 27 -99 54 -105 61 -5 7
-71 43 -145 81 -74 38 -155 82 -180 97 -25 16 -63 39 -85 50 -22 12 -49 26
-60 32 -11 7 -35 18 -52 25 -18 7 -33 17 -33 22 0 4 -7 6 -15 2 -8 -3 -15 -1
-15 5 0 5 -20 18 -44 28 -24 11 -74 38 -111 60 -37 23 -69 41 -70 41 -5 0
-188 111 -195 118 -3 2 6 1 19 -3 13 -4 31 -9 40 -10 9 -2 18 -4 21 -6 3 -1
10 -3 15 -4 13 -3 34 -10 125 -45 121 -46 160 -55 160 -37 0 8 3 8 9 -1 7 -12
63 -13 96 -1 6 2 20 -2 33 -9 12 -7 27 -10 32 -7 6 3 19 8 30 10 22 4 28 -10
8 -18 -7 -3 -3 -6 10 -6 31 -1 28 9 -18 58 -22 23 -40 40 -40 36 0 -3 -17 6
-37 19 -34 24 -39 24 -60 11 -13 -9 -23 -11 -23 -6 0 5 7 11 15 15 29 11 15
24 -45 42 -33 11 -60 22 -60 27 0 4 -7 7 -15 7 -24 0 -78 30 -93 51 -13 19
-38 27 -27 9 3 -5 1 -10 -5 -10 -7 0 -14 9 -17 19 -5 19 -67 51 -98 51 -7 0
-16 -10 -18 -22 -3 -17 -5 -15 -6 9 -1 29 -4 32 -51 42 -28 6 -61 18 -74 27
-14 8 -63 21 -109 29 -47 8 -106 23 -131 34 -24 12 -61 22 -80 23 -20 2 -36 6
-36 9 0 4 -12 9 -27 12 -143 28 -232 41 -306 43 -49 1 -91 5 -95 8 -10 11 -22
6 -22 -9 0 -8 -6 -12 -14 -9 -17 6 -33 -35 -18 -45 5 -3 12 -34 15 -69 6 -61
5 -63 -21 -73 -34 -13 -123 -13 -248 0 -191 20 -344 18 -344 -3 0 -20 66 -49
132 -57 81 -10 378 -125 378 -147 0 -4 -16 -31 -35 -61 -19 -29 -35 -55 -35
-58 0 -14 -143 -179 -227 -261 -96 -94 -280 -242 -301 -242 -7 0 -12 -4 -12
-8 0 -4 -31 -25 -70 -45 -38 -21 -72 -42 -75 -47 -3 -5 -20 -12 -38 -15 -17
-4 -37 -11 -42 -15 -6 -5 -25 -10 -43 -12 -18 -2 -37 -9 -41 -16 -11 -18 -41
-4 -41 18 0 10 4 20 9 22 28 10 3 93 -31 101 -19 5 -84 -3 -153 -18 -16 -4
-75 -22 -130 -40 -55 -18 -118 -38 -140 -44 -48 -13 -314 -17 -370 -6 -22 5
-47 9 -55 10 -8 1 -22 5 -30 8 -8 3 -37 8 -65 10 -123 12 -287 40 -365 64 -92
27 -97 29 -184 67 -32 14 -70 28 -83 31 -48 8 -259 118 -372 194 -63 42 -142
93 -175 114 -34 21 -62 43 -64 48 -2 5 -8 9 -13 9 -6 0 -36 27 -68 60 -32 33
-56 60 -53 60 3 0 -5 8 -16 19 -12 10 -22 23 -22 29 0 6 -10 19 -22 29 -13 10
-35 34 -49 53 -15 19 -36 45 -48 57 -12 12 -21 27 -21 33 0 5 -3 10 -8 10 -4
0 -13 15 -21 33 -7 17 -23 52 -34 76 -11 24 -24 60 -28 80 -4 20 -30 115 -58
211 -71 249 -95 418 -87 625 4 88 10 177 15 197 7 31 5 42 -10 62 -10 13 -19
36 -21 52 -1 26 16 94 31 119 3 6 6 15 8 20 7 35 58 163 93 233 22 45 40 86
40 90 0 13 52 105 70 124 9 10 35 44 56 76 21 31 49 67 62 80 12 13 22 26 22
30 0 4 17 25 37 47 19 22 59 67 87 99 41 47 165 159 256 229 23 18 96 65 133
86 124 69 197 115 197 122 0 11 5 12 -55 -12z m4235 -2923 c0 -3 -4 -8 -10
-11 -5 -3 -10 -1 -10 4 0 6 5 11 10 11 6 0 10 -2 10 -4z m-310 -209 c19 -10
42 -22 50 -27 27 -18 462 -270 466 -270 2 0 53 -31 115 -70 61 -38 114 -70
118 -70 3 0 12 -9 19 -20 10 -17 10 -21 -3 -26 -8 -4 -21 -2 -28 4 -6 5 -39
24 -72 42 -33 18 -80 44 -105 57 -159 87 -488 299 -606 391 -30 23 -18 20 46
-11z m-1275 -557 c-3 -5 -10 -10 -16 -10 -5 0 -9 5 -9 10 0 6 7 10 16 10 8 0
12 -4 9 -10z m43 1 c11 -7 11 -9 -1 -14 -16 -6 -27 0 -27 15 0 10 11 10 28 -1z
m2202 -20 c57 -36 66 -41 85 -50 22 -10 73 -61 61 -61 -9 0 -49 21 -56 29 -3
4 -16 12 -30 19 -51 25 -114 68 -118 80 -4 14 20 7 58 -17z m-6460 -115 c0 -3
-4 -8 -10 -11 -5 -3 -10 -1 -10 4 0 6 5 11 10 11 6 0 10 -2 10 -4z m-43 -288
c-3 -8 -6 -5 -6 6 -1 11 2 17 5 13 3 -3 4 -12 1 -19z m-80 -230 c-3 -8 -6 -5
-6 6 -1 11 2 17 5 13 3 -3 4 -12 1 -19z m-37 -158 c0 -5 -5 -10 -11 -10 -5 0
-7 5 -4 10 3 6 8 10 11 10 2 0 4 -4 4 -10z m-148 -307 c-6 -2 -10 -9 -6 -14 3
-5 0 -9 -5 -9 -6 0 -11 7 -11 15 0 8 8 15 18 14 10 0 12 -3 4 -6z m305 -515
c-3 -8 -6 -5 -6 6 -1 11 2 17 5 13 3 -3 4 -12 1 -19z m-75 -70 c-7 -7 -12 -8
-12 -2 0 14 12 26 19 19 2 -3 -1 -11 -7 -17z m4224 -153 c-15 -15 -16 -15 -16
3 0 24 11 35 23 23 6 -6 4 -16 -7 -26z m-4427 -87 c-1 -18 -3 -25 -6 -15 -2 9
-9 14 -14 11 -6 -3 -5 3 3 15 17 28 18 27 17 -11z m4548 -4 c-3 -3 -12 -4 -19
-1 -8 3 -5 6 6 6 11 1 17 -2 13 -5z m-4567 -28 c0 -3 -4 -8 -10 -11 -5 -3 -10
-1 -10 4 0 6 5 11 10 11 6 0 10 -2 10 -4z m4644 -144 c3 -5 -1 -9 -9 -9 -8 0
-12 4 -9 9 3 4 7 8 9 8 2 0 6 -4 9 -8z m-347 -54 c0 -7 4 -21 8 -30 5 -14 2
-18 -11 -17 -11 0 -14 3 -7 6 9 3 10 10 3 22 -5 10 -6 21 -3 25 9 8 10 8 10
-6z m43 -8 c0 -5 -4 -10 -10 -10 -5 0 -10 5 -10 10 0 6 5 10 10 10 6 0 10 -4
10 -10z m-77 -25 c-3 -9 -8 -14 -10 -11 -3 3 -2 9 2 15 9 16 15 13 8 -4z m-28
-5 c3 -6 -1 -7 -9 -4 -18 7 -21 14 -7 14 6 0 13 -4 16 -10z m106 -29 c0 -3 2
-14 4 -23 4 -23 -9 -23 -31 -1 -9 10 -23 18 -31 19 -33 5 -22 13 16 12 23 0
41 -3 42 -7z m-351 -31 c0 -11 -4 -20 -8 -20 -4 0 -8 9 -9 20 -1 11 2 20 8 20
5 0 9 -9 9 -20z m55 10 c3 -5 1 -10 -4 -10 -6 0 -11 5 -11 10 0 6 2 10 4 10 3
0 8 -4 11 -10z m-4075 -4 c0 -3 -4 -8 -10 -11 -5 -3 -10 -1 -10 4 0 6 5 11 10
11 6 0 10 -2 10 -4z m4520 -68 c0 -4 -4 -8 -9 -8 -6 0 -12 4 -15 8 -3 5 1 9 9
9 8 0 15 -4 15 -9z m-3474 -953 c4 -8 18 -15 33 -14 14 0 20 3 14 6 -7 2 -13
9 -13 14 0 5 9 4 19 -3 11 -7 18 -15 15 -19 -2 -4 1 -9 8 -11 8 -3 6 -7 -5
-11 -9 -3 -17 -2 -17 4 0 6 -5 7 -12 2 -18 -11 -31 -11 -45 0 -9 6 -15 5 -18
-5 -3 -8 -19 -13 -41 -13 -22 1 -38 -4 -44 -14 -7 -12 -9 -9 -10 14 0 23 -3
27 -10 15 -6 -9 -10 -10 -10 -3 0 15 15 25 60 39 50 17 70 16 76 -1z m2489
-15 c3 -5 2 -10 -4 -10 -5 0 -13 5 -16 10 -3 6 -2 10 4 10 5 0 13 -4 16 -10z
m-245 -69 c0 -6 -4 -13 -10 -16 -5 -3 -10 1 -10 9 0 9 5 16 10 16 6 0 10 -4
10 -9z m200 -11 c0 -11 -4 -20 -9 -20 -6 0 -9 9 -8 20 1 11 5 20 9 20 4 0 8
-9 8 -20z m-123 -32 c-3 -7 -5 -2 -5 12 0 14 2 19 5 13 2 -7 2 -19 0 -25z m13
-98 c0 -5 -5 -10 -11 -10 -5 0 -7 5 -4 10 3 6 8 10 11 10 2 0 4 -4 4 -10z
m-2655 -10 c4 6 16 10 28 10 18 0 19 -2 7 -11 -11 -8 -7 -9 18 -5 26 4 32 2
32 -12 0 -12 3 -13 8 -5 11 18 62 -6 62 -28 0 -24 28 -31 39 -11 10 18 23 11
27 -13 1 -8 -4 -11 -12 -8 -8 3 -14 0 -14 -5 0 -7 -14 -5 -36 4 -20 8 -33 11
-30 5 9 -14 -32 -34 -52 -25 -26 10 -52 12 -52 2 0 -5 -9 -4 -20 2 -11 6 -36
11 -55 12 -20 1 -31 5 -24 9 6 4 12 20 13 37 1 22 5 28 16 24 13 -5 13 -3 1
11 -13 16 -12 17 12 8 17 -7 28 -7 32 -1z m-474 -54 c6 3 16 0 24 -6 12 -10
15 -9 15 4 0 16 2 16 22 2 28 -20 49 -21 23 -2 -18 13 -17 14 18 14 20 0 40
-4 43 -9 4 -6 10 -6 18 0 8 7 23 7 42 2 16 -5 23 -10 15 -10 -7 -1 -11 -7 -7
-16 5 -13 2 -14 -17 -4 -20 11 -21 11 -8 -4 12 -15 11 -17 -3 -17 -9 0 -16 5
-16 10 0 15 -19 12 -36 -5 -20 -20 -38 -19 -30 1 5 14 4 15 -9 4 -17 -14 -21
-35 -5 -25 6 3 10 -3 10 -14 0 -15 7 -21 23 -22 12 0 16 -3 9 -6 -6 -2 -10 -9
-6 -14 3 -5 2 -9 -3 -8 -4 1 -21 1 -38 0 -20 -1 -26 -4 -17 -10 7 -4 12 -14
10 -21 -4 -17 43 -24 55 -8 6 9 7 8 3 -4 -4 -13 0 -18 17 -19 39 -2 71 3 92
13 14 8 20 8 23 -1 3 -9 8 -9 20 1 12 11 16 11 20 -1 4 -11 6 -11 13 0 7 11 9
10 9 -4 0 -10 4 -16 10 -12 5 3 7 12 4 20 -4 10 0 12 18 8 13 -4 26 -11 31
-17 5 -8 10 -7 16 3 11 16 19 3 16 -26 -1 -13 4 -23 11 -23 6 0 11 7 10 16 0
9 5 19 12 21 7 3 12 -5 12 -21 0 -33 -3 -40 -15 -43 -5 -1 -37 -9 -71 -16 -33
-8 -66 -17 -72 -21 -7 -4 -12 -2 -12 4 0 7 -7 7 -22 -2 -13 -7 -30 -11 -40
-10 -9 2 -19 -1 -22 -6 -3 -5 -18 -8 -33 -6 -15 1 -31 -3 -35 -9 -5 -8 -8 -6
-8 5 0 15 -3 16 -33 3 -26 -11 -37 -11 -45 -3 -9 9 -12 9 -12 0 0 -6 -12 -11
-27 -11 -16 0 -44 -3 -63 -6 -19 -4 -43 -8 -52 -8 -10 -1 -18 -5 -18 -10 0 -4
-4 -5 -10 -2 -5 3 -10 0 -10 -7 -1 -10 -4 -9 -13 2 -7 9 -21 15 -32 15 -11 0
-23 5 -27 10 -5 6 -8 6 -8 -1 0 -23 -99 -7 -136 21 -19 14 -34 23 -34 20 0 -3
-6 0 -14 7 -16 15 -11 28 10 28 8 0 14 -7 14 -15 0 -8 3 -15 6 -15 10 0 34 28
34 40 0 7 8 10 20 7 11 -3 20 -1 20 5 0 6 6 8 14 5 8 -3 18 5 25 19 16 35 15
37 -19 32 -32 -5 -41 7 -12 16 9 3 4 4 -12 2 -29 -4 -56 12 -56 34 0 6 -4 9
-10 5 -16 -10 -58 6 -62 23 -6 24 1 42 17 42 7 0 15 7 19 15 3 9 14 13 28 11
13 -2 29 1 36 6 6 6 12 8 12 6 0 -3 18 -2 40 2 22 4 43 4 45 0 3 -5 14 -6 25
-3 12 3 20 0 20 -7 0 -7 6 -5 16 5 14 13 19 14 25 3 5 -7 9 -8 9 -3 0 6 24 10
55 10 42 0 55 4 56 15 0 10 2 11 6 2 2 -6 9 -9 14 -6z m-328 -11 c-3 -9 -8
-14 -10 -11 -3 3 -2 9 2 15 9 16 15 13 8 -4z m717 11 c0 -3 -4 -8 -10 -11 -5
-3 -10 -1 -10 4 0 6 5 11 10 11 6 0 10 -2 10 -4z m265 -136 c3 -6 -1 -7 -9 -4
-18 7 -21 14 -7 14 6 0 13 -4 16 -10z m-21 -31 c-2 -4 3 -10 12 -13 8 -3 12
-2 9 4 -7 11 18 13 53 4 15 -5 21 -12 17 -22 -4 -12 -3 -13 10 -2 13 11 14 10
10 -2 -6 -16 -73 -41 -87 -32 -4 3 -14 2 -20 -3 -7 -4 -30 -9 -50 -9 -31 -2
-38 2 -38 17 0 11 4 19 10 19 5 0 6 -8 3 -17 -6 -16 -5 -16 10 -5 9 8 21 11
27 7 5 -3 10 -2 10 3 0 10 -29 26 -42 24 -5 -1 -8 6 -8 15 0 13 3 14 12 5 16
-16 31 -15 25 2 -4 10 2 13 18 12 13 0 21 -4 19 -7z m166 -4 c0 -1 -9 -10 -20
-20 -18 -17 -20 -17 -14 -2 4 12 1 17 -11 17 -9 0 -14 4 -11 9 5 7 56 4 56 -4z
m-256 -14 c3 -5 -1 -11 -9 -14 -9 -4 -12 -1 -8 9 6 16 10 17 17 5z m1853 -33
c-3 -8 -6 -5 -6 6 -1 11 2 17 5 13 3 -3 4 -12 1 -19z m-1887 -18 c0 -5 -4 -10
-10 -10 -5 0 -10 5 -10 10 0 6 5 10 10 10 6 0 10 -4 10 -10z m30 -4 c0 -3 -4
-8 -10 -11 -5 -3 -10 -1 -10 4 0 6 5 11 10 11 6 0 10 -2 10 -4z m2395 -6 c3
-5 1 -10 -4 -10 -6 0 -11 5 -11 10 0 6 2 10 4 10 3 0 8 -4 11 -10z m-630 -28
c-8 -8 -25 10 -19 20 4 6 9 5 15 -3 4 -7 6 -15 4 -17z m-2020 -162 c-3 -5 -14
-10 -23 -9 -14 0 -13 2 3 9 27 11 27 11 20 0z m2785 -31 c0 -6 -4 -7 -10 -4
-5 3 -10 11 -10 16 0 6 5 7 10 4 6 -3 10 -11 10 -16z"/>
<path d="M1515 790 c3 -5 8 -10 11 -10 2 0 4 5 4 10 0 6 -5 10 -11 10 -5 0 -7
-4 -4 -10z"/>
<path d="M832 471 c-10 -6 -10 -10 3 -21 13 -11 15 -9 15 9 0 24 0 24 -18 12z"/>
<path d="M1410 309 c0 -3 9 -9 20 -12 11 -3 17 -1 14 4 -3 6 6 7 23 3 15 -4
24 -3 20 2 -10 10 -77 13 -77 3z"/>
<path d="M3305 7469 c-22 -4 -83 -7 -135 -7 -56 0 -111 -6 -135 -15 -22 -8
-62 -17 -89 -21 -57 -9 -248 -88 -358 -149 -71 -38 -278 -217 -278 -239 0 -4
13 -6 29 -4 22 2 31 -2 34 -15 3 -9 0 -22 -5 -27 -6 -6 -6 -12 1 -16 6 -4 11
-18 11 -32 0 -35 23 -40 82 -15 28 11 69 21 91 21 35 0 46 7 95 55 36 36 50
55 39 55 -9 0 -17 7 -17 15 0 30 -94 8 -142 -33 -14 -12 -21 -12 -33 -2 -13
11 -9 19 27 62 47 56 52 59 160 84 64 15 79 16 93 4 26 -21 14 -52 -30 -77
-22 -12 -34 -23 -27 -23 7 0 11 -4 8 -8 -6 -10 115 -49 170 -55 27 -3 50 -14
67 -31 14 -14 33 -26 40 -26 8 0 17 -9 20 -21 3 -12 10 -18 16 -14 7 4 11 -4
11 -19 0 -14 4 -26 8 -26 5 0 7 -22 4 -49 -3 -40 0 -53 17 -70 12 -12 26 -21
31 -21 6 0 18 -13 29 -30 10 -16 21 -27 24 -23 4 3 7 1 7 -5 0 -7 6 -12 13
-12 8 0 23 -11 36 -23 18 -20 20 -29 12 -50 -5 -14 -15 -28 -21 -32 -16 -10 7
-25 37 -25 23 0 98 -46 98 -60 0 -22 15 -26 118 -29 32 -1 37 -4 33 -19 -4
-10 1 -27 9 -38 19 -25 19 -68 0 -84 -8 -7 -15 -9 -15 -4 0 5 -4 4 -8 -3 -6
-9 -15 -8 -40 4 -18 9 -35 13 -38 11 -10 -11 -16 -78 -10 -112 l7 -36 30 15
c40 21 116 22 136 2 13 -13 14 -23 5 -56 -6 -26 -6 -43 0 -47 16 -10 52 4 66
26 16 25 6 71 -14 63 -8 -3 -14 0 -14 6 0 6 5 11 10 11 6 0 10 7 10 15 0 16
42 31 59 21 5 -4 14 1 19 9 7 13 16 14 53 6 55 -12 132 -8 137 8 2 6 7 9 11 6
5 -2 17 11 27 30 10 20 26 35 36 35 10 0 18 5 18 10 0 17 19 11 42 -12 13 -13
26 -22 30 -21 5 2 8 -1 8 -6 0 -11 70 6 85 20 13 13 51 11 63 -4 8 -9 7 -28
-3 -66 -8 -29 -15 -82 -17 -117 -2 -47 -6 -63 -15 -60 -7 3 -13 -2 -13 -10 0
-8 -4 -12 -10 -9 -6 3 -7 -1 -4 -9 4 -10 1 -16 -7 -16 -7 0 -10 -2 -7 -6 3 -3
2 -21 -2 -41 -18 -78 58 -206 128 -219 84 -15 172 -79 172 -124 0 -36 -17 -50
-61 -50 -48 0 -60 -18 -28 -42 13 -10 29 -22 34 -27 6 -4 29 -8 50 -7 38 1 40
3 43 34 4 41 22 49 66 28 19 -9 41 -16 49 -16 20 0 67 -43 67 -62 0 -7 8 -14
18 -15 42 -3 80 -17 175 -65 103 -53 130 -59 222 -45 41 6 85 28 85 42 0 22
-41 41 -205 95 -186 61 -218 75 -262 114 -37 32 -40 44 -18 86 27 53 85 388
84 485 -1 58 -17 157 -44 279 -18 80 -87 247 -112 274 -7 7 -13 18 -13 23 0
13 -66 114 -114 174 -41 51 -217 227 -277 277 -33 27 -90 58 -114 62 -7 1 -19
7 -27 14 -41 34 -276 123 -363 137 -22 4 -62 13 -90 20 -60 16 -244 25 -300
14z m-220 -123 c33 -14 73 -37 89 -52 26 -24 27 -27 12 -36 -12 -7 -47 -6
-102 3 -78 11 -88 11 -116 -6 l-31 -18 16 29 c9 16 19 46 22 67 7 46 24 47
110 13z m425 -192 c0 -8 6 -14 13 -14 20 0 50 -37 44 -54 -7 -17 17 -41 32
-32 35 22 161 10 161 -16 0 -24 -113 -36 -147 -15 -16 10 -83 -21 -83 -39 0
-20 93 -123 133 -147 25 -16 28 -22 23 -50 -10 -49 -41 -74 -99 -82 -29 -4
-58 -12 -65 -18 -13 -11 -68 -12 -113 -2 -23 5 -25 10 -23 50 2 25 6 49 9 55
10 16 -82 -16 -111 -39 -33 -26 -42 -26 -40 -3 0 10 -5 16 -13 14 -21 -4 -30
17 -24 54 5 32 -3 45 -54 84 -11 8 -25 29 -30 45 -8 23 -16 30 -36 30 -20 -1
-27 4 -27 18 0 10 -4 15 -10 12 -6 -4 -10 6 -10 22 1 34 46 103 80 121 35 18
150 9 229 -18 62 -22 64 -22 88 -4 14 11 24 23 23 29 -2 10 31 25 43 18 4 -2
7 -11 7 -19z m310 -475 c0 -5 5 -7 10 -4 15 9 12 -21 -3 -33 -10 -8 -16 -6
-25 9 -13 20 -9 39 9 39 5 0 9 -5 9 -11z m-67 -38 c4 -1 7 -17 5 -36 -2 -35
-2 -36 -46 -33 -25 1 -46 7 -49 15 -6 16 46 62 67 58 8 -2 19 -4 23 -4z"/>
<path d="M3411 6950 c-10 -6 -10 -12 -1 -30 13 -24 13 -24 28 7 9 16 9 22 -2
26 -7 3 -18 2 -25 -3z"/>
<path d="M4790 7410 c0 -5 5 -10 11 -10 5 0 7 5 4 10 -3 6 -8 10 -11 10 -2 0
-4 -4 -4 -10z"/>
<path d="M4815 7390 c-3 -5 20 -36 52 -68 159 -160 326 -434 423 -692 7 -19
22 -54 32 -78 23 -52 52 -163 74 -281 18 -97 33 -127 72 -143 100 -41 222
-108 370 -205 29 -19 59 -32 67 -29 46 17 -30 257 -180 569 -54 110 -161 278
-219 343 -20 21 -36 42 -36 47 0 4 -19 27 -42 50 -24 24 -63 67 -88 96 -25 30
-58 68 -75 86 -16 18 -46 51 -64 73 -19 23 -47 44 -62 47 -20 5 -26 11 -22 22
5 12 1 14 -16 8 -15 -4 -23 -2 -27 10 -4 9 -13 14 -21 10 -11 -4 -13 -1 -9 11
4 12 2 15 -9 10 -8 -3 -14 -2 -14 2 3 18 -2 32 -11 32 -5 0 -6 -7 -3 -17 4
-11 3 -14 -5 -9 -7 4 -12 12 -12 17 0 6 -8 18 -17 27 -16 16 -16 16 -10 0 3
-10 2 -18 -4 -18 -6 0 -13 9 -16 20 -3 11 -16 23 -29 26 -13 3 -24 10 -24 16
0 5 -4 7 -9 3 -5 -3 -12 -1 -16 4 -3 6 -13 7 -22 4 -11 -4 -14 -3 -9 5 4 7 3
12 -3 12 -5 0 -13 -4 -16 -10z"/>
<path d="M2151 6856 c-28 -29 -81 -132 -81 -158 0 -14 50 -40 65 -35 13 5 13
10 0 41 -14 33 -14 34 10 40 34 9 85 54 85 76 0 11 -9 26 -21 34 -12 8 -18 19
-14 25 14 24 -13 9 -44 -23z"/>
<path d="M2466 6794 c-23 -22 -20 -34 8 -34 17 0 25 7 28 25 6 29 -12 34 -36
9z"/>
<path d="M2873 6733 c-18 -7 -16 -23 2 -23 8 0 15 7 15 15 0 8 -1 15 -2 14 -2
0 -9 -3 -15 -6z"/>
<path d="M2841 6619 c-14 -16 -31 -29 -38 -29 -31 0 -5 -27 34 -36 50 -10 87
-31 118 -67 35 -40 37 -41 51 -22 16 22 18 35 5 35 -5 0 -12 7 -15 16 -3 8 -2
13 3 10 13 -9 23 42 12 63 -17 30 -37 42 -92 50 -50 8 -54 7 -78 -20z"/>
<path d="M1985 6530 c-7 -12 2 -30 16 -30 12 0 12 27 0 35 -5 3 -12 1 -16 -5z"/>
<path d="M2462 6503 c-33 -6 -25 -44 12 -61 37 -18 77 -3 69 26 -4 16 -47 47
-56 41 -1 -1 -12 -4 -25 -6z"/>
<path d="M2090 6430 c0 -5 5 -10 10 -10 6 0 10 5 10 10 0 6 -4 10 -10 10 -5 0
-10 -4 -10 -10z"/>
<path d="M1580 6350 c0 -5 5 -10 10 -10 6 0 10 5 10 10 0 6 -4 10 -10 10 -5 0
-10 -4 -10 -10z"/>
<path d="M1912 6323 c-25 -66 -20 -145 9 -164 9 -5 9 -18 0 -52 -10 -33 -10
-58 -3 -98 6 -30 13 -75 17 -100 3 -26 12 -54 19 -64 12 -17 14 -16 34 6 12
12 22 26 22 30 0 4 11 10 24 13 22 5 24 11 23 53 -1 27 -8 56 -16 65 -8 9 -16
39 -19 65 -2 26 -8 56 -14 66 -12 23 -1 36 37 43 16 3 31 7 35 9 3 2 12 0 19
-4 19 -12 70 16 66 37 -2 9 -4 20 -4 24 -2 13 -81 29 -115 22 -52 -9 -74 2
-78 39 -4 44 -40 50 -56 10z"/>
<path d="M1576 6288 c-3 -18 -13 -46 -21 -61 -15 -28 -19 -63 -31 -222 -18
-236 21 -410 162 -716 69 -150 128 -245 203 -326 36 -39 86 -94 111 -121 45
-50 170 -144 288 -217 35 -22 90 -57 122 -78 86 -56 326 -141 455 -163 44 -7
107 -17 140 -23 109 -20 352 -23 461 -7 212 32 426 90 514 139 64 35 101 59
97 63 -2 2 -35 -5 -73 -17 -38 -11 -100 -28 -139 -39 -38 -10 -97 -28 -130
-40 -49 -18 -90 -23 -225 -27 -107 -4 -190 -1 -235 6 -38 7 -77 13 -85 13 -8
0 -48 6 -89 14 -40 8 -85 16 -100 18 -38 5 -84 18 -96 26 -5 4 -31 12 -58 19
-47 11 -168 68 -219 103 -14 10 -31 18 -37 18 -6 0 -63 32 -127 70 -64 39
-119 70 -121 70 -2 0 -24 14 -49 30 -24 17 -44 28 -44 24 0 -4 -7 1 -15 12 -8
10 -15 15 -15 11 0 -5 -13 1 -29 12 -16 12 -34 21 -40 21 -6 0 -11 4 -11 10 0
5 -18 14 -39 20 -25 6 -42 18 -46 30 -4 11 -11 20 -16 20 -6 0 -27 18 -48 40
-20 22 -42 40 -47 40 -6 0 -15 10 -21 23 -6 12 -27 43 -47 70 -20 26 -34 47
-31 47 3 0 -3 8 -12 18 -10 9 -38 58 -63 107 -25 50 -49 93 -54 97 -5 3 -10
17 -11 30 -12 134 -15 151 -49 278 -8 30 -20 87 -26 125 -6 39 -16 85 -22 104
-6 18 -12 68 -13 111 -2 44 -6 84 -11 91 -4 7 -3 10 3 6 9 -6 9 140 0 149 -3
3 -7 -10 -11 -28z"/>
<path d="M3237 6213 c-12 -11 -7 -33 7 -33 12 0 26 20 26 36 0 7 -26 5 -33 -3z"/>
<path d="M2772 6101 c4 -13 18 -16 19 -4 0 4 -5 9 -11 12 -7 2 -11 -2 -8 -8z"/>
<path d="M3235 6027 c-27 -29 -48 -56 -47 -61 6 -18 -8 -54 -23 -60 -9 -3 -20
5 -29 22 l-15 27 -1 -28 c0 -43 -48 -84 -128 -111 -105 -34 -118 -45 -125
-107 -8 -63 -3 -72 34 -67 41 6 37 -15 -6 -31 -19 -7 -35 -16 -35 -21 0 -7
-60 -4 -88 5 -7 3 -10 0 -7 -5 3 -6 1 -10 -4 -10 -6 0 -11 -6 -11 -14 0 -7 -7
-19 -15 -26 -20 -17 -19 -24 11 -59 14 -17 30 -47 36 -68 9 -34 8 -39 -15 -58
-17 -16 -35 -21 -63 -19 -47 4 -55 -7 -47 -65 5 -36 3 -45 -13 -54 -10 -7 -23
-12 -27 -12 -4 0 -12 -7 -17 -15 -8 -12 -10 -12 -10 -1 0 10 -9 12 -36 8 -25
-4 -37 -2 -41 9 -3 7 -12 14 -20 14 -11 0 -14 -8 -11 -32 3 -17 -1 -43 -8 -57
-26 -49 -10 -88 24 -58 12 10 36 14 77 13 33 -1 93 2 134 7 52 6 76 5 81 -2 7
-13 52 -11 61 3 4 5 20 5 35 1 16 -5 32 -8 37 -7 4 1 7 -3 7 -9 0 -5 4 -8 9
-5 5 4 11 0 14 -6 2 -7 8 -10 12 -6 4 4 2 28 -5 53 -17 61 -4 90 47 104 21 6
43 11 50 11 7 0 18 10 24 22 16 29 33 46 50 49 25 5 69 -11 69 -26 0 -25 43
-67 63 -60 9 4 17 12 17 17 0 6 8 17 18 24 10 8 12 13 5 14 -15 0 -18 20 -4
20 5 0 17 -7 25 -16 9 -8 25 -16 35 -17 11 -1 22 -9 24 -19 3 -10 16 -22 30
-27 17 -7 26 -19 29 -43 7 -41 -4 -48 -63 -41 -26 3 -63 3 -81 -1 -29 -5 -37
-12 -45 -41 -8 -25 -8 -37 1 -43 30 -22 65 -32 101 -29 37 2 42 6 70 54 25 43
34 51 57 50 16 -1 28 -6 28 -10 0 -4 9 -17 20 -29 11 -12 20 -32 20 -45 0 -22
-34 -101 -49 -113 -39 -33 -73 -82 -65 -90 8 -8 15 -6 24 5 14 17 85 21 95 4
4 -6 13 -8 21 -5 8 3 27 0 42 -6 31 -12 78 -11 125 4 18 5 61 16 97 23 131 27
184 45 293 98 117 58 167 77 199 77 33 0 104 38 122 64 21 33 21 72 -1 80 -15
6 -15 8 1 24 14 14 43 18 162 22 112 4 147 9 154 20 14 22 12 50 -4 50 -7 0
-19 6 -25 14 -13 15 -77 32 -151 40 -79 9 -150 33 -150 52 0 16 -24 35 -52 39
-33 4 -88 28 -88 37 0 12 -69 71 -94 81 -24 10 -196 17 -196 9 0 -3 8 -15 18
-26 15 -19 15 -19 0 -7 -9 7 -22 10 -27 7 -13 -9 -24 12 -23 44 0 16 -5 27
-13 27 -8 0 -12 -4 -9 -9 10 -15 -6 -8 -27 13 -13 13 -18 27 -14 41 7 21 9 21
-65 5 -3 -1 -20 4 -37 10 -39 14 -45 49 -14 77 11 10 24 30 31 46 7 17 27 34
51 45 21 10 39 21 39 24 -1 15 -18 29 -55 43 -36 13 -48 13 -118 0 -77 -15
-77 -15 -89 -54 -7 -24 -8 -42 -2 -46 12 -9 16 -27 19 -87 2 -27 8 -72 15 -99
18 -73 -5 -105 -76 -106 -11 0 -21 6 -21 13 0 6 -3 32 -6 56 -4 27 -2 50 5 58
8 10 7 12 -5 7 -10 -4 -23 6 -40 30 -22 33 -25 35 -38 20 -11 -13 -26 -15 -77
-11 -47 3 -66 1 -77 -10 -23 -22 -18 -38 20 -79 19 -20 35 -41 35 -45 0 -9 5
-11 40 -13 12 0 24 -6 28 -11 4 -6 19 -18 35 -28 21 -14 27 -25 27 -52 0 -30
-5 -38 -35 -52 -32 -15 -37 -15 -74 2 -33 14 -42 24 -47 52 -5 27 -12 35 -35
40 -26 5 -79 46 -79 62 0 3 -4 12 -9 20 -7 11 -21 8 -77 -14 -110 -44 -166
-32 -180 39 -4 26 1 42 29 83 19 29 38 49 41 46 3 -4 6 -1 6 5 0 7 9 12 20 12
11 0 20 4 20 9 0 11 60 22 112 21 27 0 40 5 48 20 6 11 17 20 25 20 18 0 55
47 55 70 0 10 -15 27 -32 39 -18 11 -32 23 -30 26 1 3 2 21 2 41 0 24 -4 33
-12 28 -8 -5 -9 3 -5 29 3 21 5 37 4 37 -1 -1 -24 -24 -52 -53z m-178 -279
c-3 -7 -5 -2 -5 12 0 14 2 19 5 13 2 -7 2 -19 0 -25z m1 -368 c20 -26 32 -63
16 -47 -4 3 -12 0 -19 -6 -7 -7 -31 -19 -53 -26 -39 -13 -44 -13 -77 10 -19
13 -34 30 -33 38 2 8 24 21 50 30 26 9 50 19 54 24 15 15 41 6 62 -23z m-279
-104 c-9 -8 -10 -7 -5 7 3 10 7 24 7 30 1 7 3 4 6 -7 3 -10 -1 -23 -8 -30z
m49 -33 c0 -21 -28 -57 -28 -37 0 5 -5 2 -10 -6 -7 -11 -10 -7 -10 18 0 17 5
32 11 32 5 0 8 4 4 9 -3 6 3 9 14 8 12 -1 19 -9 19 -24z"/>
<path d="M2973 6053 c-14 -9 -23 -26 -23 -41 0 -23 2 -24 38 -18 20 3 49 6 65
6 44 0 31 31 -23 54 -31 12 -38 12 -57 -1z"/>
<path d="M2546 5766 c-9 -14 -16 -37 -16 -51 0 -28 -29 -61 -65 -75 -14 -5
-25 -16 -25 -23 0 -7 -11 -23 -23 -36 -32 -29 -61 -17 -107 44 -31 42 -58 65
-74 65 -3 0 -6 -19 -6 -42 0 -28 -8 -51 -25 -74 -28 -37 -32 -59 -10 -68 8 -3
15 -12 15 -21 0 -8 5 -15 12 -15 6 0 22 -10 36 -22 22 -22 24 -22 36 -5 15 19
56 23 73 6 24 -24 57 -5 83 48 14 28 30 52 37 52 6 1 17 16 23 35 10 31 15 35
60 41 48 7 49 7 38 33 -5 15 -13 49 -17 76 -7 57 -21 67 -45 32z"/>
<path d="M2731 5626 c-8 -10 -9 -16 -1 -21 13 -8 30 3 30 21 0 18 -14 18 -29
0z"/>
<path d="M2045 5543 c8 -33 51 -93 67 -93 6 0 7 8 3 18 -3 9 -9 29 -12 44 -3
15 -9 25 -14 22 -5 -3 -9 1 -9 9 0 13 -20 27 -37 27 -3 0 -2 -12 2 -27z"/>
<path d="M5413 5519 c-33 -12 -28 -28 12 -45 47 -19 96 -19 89 1 -4 8 -17 18
-30 21 -13 3 -24 10 -24 14 0 13 -24 18 -47 9z"/>
<path d="M2273 5323 c-14 -5 -17 -41 -5 -60 9 -15 25 -5 41 25 18 34 1 50 -36
35z"/>
<path d="M2790 4886 l-34 -13 26 -17 c49 -32 129 -45 186 -30 24 7 31 34 7 34
-8 0 -20 9 -27 20 -10 16 -23 20 -68 19 -30 0 -71 -6 -90 -13z"/>
<path d="M3417 4814 c-11 -11 3 -24 18 -18 8 4 12 10 9 15 -6 11 -18 12 -27 3z"/>
<path d="M5550 4319 c0 -5 -5 -7 -12 -3 -7 4 -8 3 -4 -4 4 -7 2 -12 -3 -12 -6
0 -11 6 -11 13 0 8 -3 9 -8 1 -4 -6 -15 -12 -24 -13 -10 -1 -27 -2 -38 -3 -22
-2 -26 -13 -10 -23 14 -9 12 -25 -2 -25 -8 0 -14 -15 -15 -38 -2 -35 -1 -36 8
-10 6 16 16 25 24 22 7 -3 23 -1 34 6 17 8 21 8 21 -4 0 -9 7 -12 20 -9 11 3
17 9 14 14 -3 5 -1 9 5 9 5 0 11 -6 14 -12 2 -7 4 2 5 20 0 17 -4 32 -9 32 -5
0 -7 11 -3 25 3 14 3 25 0 25 -3 0 -6 -5 -6 -11z"/>
<path d="M5388 4263 c7 -3 16 -2 19 1 4 3 -2 6 -13 5 -11 0 -14 -3 -6 -6z"/>
<path d="M5331 4219 c-24 -19 -18 -26 9 -9 9 5 19 5 27 -2 17 -14 17 0 0 16
-11 11 -17 10 -36 -5z"/>
<path d="M5341 4183 c-1 -17 16 -25 25 -12 4 7 3 9 -4 5 -5 -3 -13 0 -15 6 -4
9 -6 10 -6 1z"/>
<path d="M5310 4136 c0 -9 5 -16 10 -16 6 0 10 4 10 9 0 6 -4 13 -10 16 -5 3
-10 -1 -10 -9z"/>
<path d="M5263 4133 c-20 -7 -15 -37 7 -50 19 -12 50 -8 50 6 0 7 -39 52 -43
50 -1 0 -8 -3 -14 -6z m33 -50 c-4 -4 -11 -1 -16 7 -16 25 -11 35 7 17 9 -9
13 -20 9 -24z"/>
<path d="M670 3979 c0 -5 5 -7 10 -4 6 3 10 8 10 11 0 2 -4 4 -10 4 -5 0 -10
-5 -10 -11z"/>
<path d="M635 3310 c3 -5 8 -10 11 -10 2 0 4 5 4 10 0 6 -5 10 -11 10 -5 0 -7
-4 -4 -10z"/>
<path d="M383 2963 c-7 -3 -13 -9 -13 -14 0 -6 5 -7 10 -4 6 3 10 0 10 -9 0
-8 -6 -17 -12 -19 -10 -4 -10 -6 -1 -6 16 -1 37 39 26 49 -4 4 -14 5 -20 3z"/>
<path d="M580 2954 c0 -8 5 -12 10 -9 6 4 8 11 5 16 -9 14 -15 11 -15 -7z"/>
<path d="M686 2324 c-3 -8 -2 -13 3 -9 5 3 12 -1 14 -7 4 -8 6 -7 6 4 1 23
-15 32 -23 12z"/>
<path d="M495 2200 c-3 -5 -1 -10 4 -10 6 0 11 5 11 10 0 6 -2 10 -4 10 -3 0
-8 -4 -11 -10z"/>
<path d="M5110 2179 c0 -5 5 -7 10 -4 6 3 10 8 10 11 0 2 -4 4 -10 4 -5 0 -10
-5 -10 -11z"/>
<path d="M5235 2130 c-3 -5 -1 -10 4 -10 6 0 11 5 11 10 0 6 -2 10 -4 10 -3 0
-8 -4 -11 -10z"/>
<path d="M5200 2122 c0 -10 22 -32 32 -32 5 0 3 9 -4 20 -13 20 -28 27 -28 12z"/>
<path d="M4921 1884 c0 -11 3 -14 6 -6 3 7 2 16 -1 19 -3 4 -6 -2 -5 -13z"/>
<path d="M4947 1853 c-4 -3 -7 -11 -7 -17 0 -6 5 -5 12 2 6 6 9 14 7 17 -3 3
-9 2 -12 -2z"/>
<path d="M378 1623 c7 -3 16 -2 19 1 4 3 -2 6 -13 5 -11 0 -14 -3 -6 -6z"/>
<path d="M275 1600 c-3 -5 -1 -10 4 -10 6 0 11 5 11 10 0 6 -2 10 -4 10 -3 0
-8 -4 -11 -10z"/>
<path d="M4530 1559 c0 -5 5 -7 10 -4 6 3 10 8 10 11 0 2 -4 4 -10 4 -5 0 -10
-5 -10 -11z"/>
<path d="M130 1540 c0 -5 5 -10 10 -10 6 0 10 5 10 10 0 6 -4 10 -10 10 -5 0
-10 -4 -10 -10z"/>
<path d="M4880 1430 c0 -5 5 -10 11 -10 5 0 7 5 4 10 -3 6 -8 10 -11 10 -2 0
-4 -4 -4 -10z"/>
<path d="M0 1089 c0 -29 4 -39 16 -39 8 0 12 5 9 10 -3 6 3 10 14 10 11 0 23
5 26 10 4 6 11 8 16 5 5 -4 9 -2 9 2 0 8 -48 32 -77 38 -9 2 -13 -10 -13 -36z
m60 1 c0 -5 -4 -10 -9 -10 -6 0 -13 5 -16 10 -3 6 1 10 9 10 9 0 16 -4 16 -10z"/>
<path d="M915 1019 c-11 -16 -1 -19 13 -3 7 8 8 14 3 14 -5 0 -13 -5 -16 -11z"/>
<path d="M4051 844 c0 -11 3 -14 6 -6 3 7 2 16 -1 19 -3 4 -6 -2 -5 -13z"/>
<path d="M4805 740 c-3 -6 -19 -10 -35 -10 -16 0 -35 -6 -42 -14 -8 -7 -33
-17 -56 -21 -23 -4 -44 -11 -48 -16 -3 -5 -10 -7 -15 -4 -5 4 -9 0 -9 -7 0 -9
-3 -9 -10 2 -6 10 -10 11 -10 3 0 -7 -6 -13 -14 -13 -7 0 -19 -7 -26 -15 -10
-12 -10 -15 3 -15 8 0 20 -7 27 -15 6 -8 24 -13 38 -11 24 2 27 -1 30 -31 1
-21 -2 -32 -8 -28 -6 3 -17 -1 -26 -9 -8 -9 -11 -16 -5 -16 5 0 13 4 16 10 4
6 16 3 32 -7 25 -17 26 -17 19 7 -5 18 -5 21 3 11 7 -12 12 -12 24 -2 12 9 16
9 20 -1 3 -10 11 -9 36 5 27 16 31 16 31 2 0 -13 4 -14 20 -5 11 6 20 7 20 3
0 -4 5 -1 11 7 8 11 12 12 16 3 3 -9 10 -10 24 -3 12 7 19 7 19 1 0 -6 7 -8
15 -5 8 4 15 1 15 -5 0 -6 9 -11 20 -11 17 0 19 -3 10 -19 -12 -24 -13 -34 -1
-27 5 3 8 -2 7 -12 -1 -11 6 -16 18 -15 11 1 42 -2 70 -7 35 -5 55 -4 65 4 8
6 16 10 18 9 12 -9 52 0 57 13 3 8 2 12 -4 9 -6 -3 -10 -1 -10 4 0 6 6 11 13
11 6 0 4 5 -5 11 -19 10 -25 39 -9 39 5 0 16 12 26 26 14 22 15 28 4 35 -11 7
-9 10 9 15 23 7 23 7 2 21 -11 8 -25 11 -32 7 -7 -4 -8 -3 -4 4 5 8 -2 12 -19
12 -18 0 -24 -4 -19 -12 4 -7 -2 -5 -13 5 -14 12 -29 16 -47 11 -18 -4 -26 -2
-26 7 0 11 -3 11 -10 -1 -6 -10 -10 -11 -10 -2 0 6 -6 12 -13 12 -8 0 -29 8
-48 17 -19 10 -43 19 -54 20 -10 2 -22 7 -25 11 -8 11 -78 13 -85 2z"/>
<path d="M4598 583 c7 -3 16 -2 19 1 4 3 -2 6 -13 5 -11 0 -14 -3 -6 -6z"/>
<path d="M4468 460 c-15 -4 -29 -5 -32 -2 -3 3 -6 -3 -6 -13 0 -15 3 -16 12
-7 7 7 20 12 29 12 10 0 21 5 24 10 3 6 5 10 3 9 -2 0 -15 -4 -30 -9z"/>
<path d="M4208 103 c7 -3 16 -2 19 1 4 3 -2 6 -13 5 -11 0 -14 -3 -6 -6z"/>
<path d="M3950 50 c0 -5 5 -10 10 -10 6 0 10 5 10 10 0 6 -4 10 -10 10 -5 0
-10 -4 -10 -10z"/>
<path d="M4120 50 c0 -5 9 -10 21 -10 11 0 17 4 14 10 -3 6 -13 10 -21 10 -8
0 -14 -4 -14 -10z"/>
<path d="M4170 50 c0 -5 5 -10 10 -10 6 0 10 5 10 10 0 6 -4 10 -10 10 -5 0
-10 -4 -10 -10z"/>
<path d="M3895 39 c-4 -6 -5 -12 -2 -15 2 -3 7 2 10 11 7 17 1 20 -8 4z"/>
<path d="M820 15 c-10 -13 -9 -15 9 -15 11 0 21 4 21 9 0 18 -18 21 -30 6z"/>
</g>
</svg>
